<svg xmlns="http://www.w3.org/2000/svg" width="252" height="34" viewBox="0 0 216 28"><path fill="#FFF" fill-rule="evenodd" d="M5.78 10.176c.554.03 1.143.116 1.7.116 3.023 0 4.518-1.293 4.518-4.47 0-2.854-1.35-4.325-4.196-4.325-2.14.06-2.023-.058-2.023 1.385v7.294zm0 4.354c0 .938 0 3.118.293 3.908.412 1.147 1.79.943 2.813 1.003v.678c-1.52-.03-3.048-.088-4.575-.118-1.436.03-2.845.09-4.31.118v-.677c.938 0 2.17 0 2.494-1.002.263-.79.263-2.97.263-3.908V6.262c0-.97 0-3.148-.263-3.94C2.14 1.292.938 1.32 0 1.32V.643c1.495.03 2.962.092 4.428.12 1.41-.028 2.788-.09 4.195-.12 3.17.12 6.746 1.354 6.746 5.09 0 4.296-4.132 5.323-7.626 5.323-.528 0-1.85-.088-1.965-.088v3.562zm12.207-1.414c0-.79.026-2.88-.178-3.56-.27-1.06-1-.94-1.938-.94v-.588c1.38-.09 2.668-.617 3.963-.912.263.853.378 1.914.35 2.97h.06c.76-1.793 2.228-2.97 4.252-2.97.912 0 2.084.44 2.084 1.527 0 .563-.466 1.06-1.028 1.06-1.233 0-.964-1.53-2.11-1.53-.88 0-1.848.738-2.29 1.474-.674 1.205-.674 2.647-.674 3.997v2.91c0 2.15-.234 2.856 2.232 2.97v.594c-1.116-.03-2.26-.09-3.372-.12-1.148.03-2.263.09-3.405.12v-.593c2.197-.143 2.054-.85 2.054-2.79v-3.62zm20.448 4.822c-1.38 1.707-3.024 2.5-5.227 2.5-3.634 0-6.626-2.558-6.626-6.324 0-3.673 2.785-6.998 6.6-6.998 2.876 0 5.603 1.618 5.603 4.795 0 .383-.438.264-.733.264h-8.42l-.117 1.41c0 2.794 1.465 5.912 4.606 5.912 1.497 0 2.816-.998 3.698-2.175l.617.618zm-3.81-6.557H29.78c.35-1.91 1.23-3.586 3.428-3.586 1.852 0 2.85 1.175 2.85 3 0 .734-.97.587-1.434.587zm17.218 6.796c-1.235 1.526-3.26 2.264-5.166 2.264-3.636 0-6.306-2.59-6.306-6.237 0-4.117 3.11-7.086 7.19-7.086 1.143 0 3.81.35 3.81 1.97 0 .528-.436 1.09-.967 1.09-.702 0-1.088-.59-1.29-1.147-.35-.885-.585-1.12-1.673-1.12-3.167 0-4.137 3.237-4.137 5.824 0 2.82.91 5.762 4.228 5.762 1.466 0 2.76-.76 3.697-1.85l.616.53zM54.07 1.88A1.58 1.58 0 0 1 55.653.29c.883 0 1.558.708 1.558 1.59 0 .854-.674 1.56-1.497 1.56-.878 0-1.643-.648-1.643-1.56zm3.17 5.235v9.44c.057 1.942-.264 2.826 2.054 2.97v.592c-1-.03-2.083-.088-3.14-.118-1.147.03-2.288.09-3.432.117v-.592c2.17-.144 1.997-.85 2.023-2.792v-4.205c0-.56 0-2.824-.117-3.266-.205-.736-1.436-.676-2.025-.648v-.587l4.638-.912zm3.374 13.117h-.295l-.117-4.206h.588c.47 1.882 1.464 3.736 3.635 3.736 1.293 0 2.465-.648 2.465-2.06 0-1.676-1.7-2.353-2.963-3-1.698-.88-3.52-1.85-3.52-4.056 0-2.032 1.613-3.53 3.637-3.53.913 0 2.024.263 2.846.734l.588-.706h.35l-.06 3.68h-.583c-.528-1.474-1.173-3.03-3.024-3.03-.963 0-1.876.558-1.876 1.615 0 1.53 1.613 2.06 2.73 2.676 2.024 1.06 3.875 1.825 3.875 4.47 0 2.415-2.06 3.884-4.318 3.884-1.114 0-2.343-.353-3.228-1.06l-.73.852zM71.204 1.88c0-.882.703-1.59 1.583-1.59s1.55.708 1.55 1.59c0 .854-.67 1.56-1.492 1.56-.877 0-1.642-.648-1.642-1.56zm3.165 5.235v9.44c.06 1.942-.26 2.826 2.06 2.97v.592c-1-.03-2.09-.088-3.143-.118-1.146.03-2.288.09-3.433.117v-.592c2.172-.144 1.993-.85 2.024-2.792v-4.205c0-.56 0-2.824-.115-3.266-.21-.736-1.444-.676-2.027-.648v-.587l4.633-.912zm16.168 6.618c0 3.968-3.227 6.706-7.068 6.706-3.813 0-7.04-2.94-7.04-6.826 0-3.765 3.46-6.498 7.04-6.498 3.633 0 7.068 2.822 7.068 6.617zm-11.18 0c0-2.558.796-5.94 3.992-5.94 3.46 0 4.256 3.294 4.256 6.117 0 2.62-.796 5.85-3.993 5.85-3.43 0-4.254-3.23-4.254-6.027zm24.73 2.822c0 1.943-.232 2.826 2.06 2.97v.593c-1.06-.03-2.145-.088-3.2-.12-1.147.032-2.257.09-3.407.12v-.593c2.205-.144 2.058-.85 2.058-2.792V12.97c0-2.028.093-4.913-2.697-4.913-2.29 0-3.755 1.792-3.755 3.943v4.555c0 1.943-.265 2.826 2.055 2.97v.593c-1.064-.03-2.148-.088-3.202-.12-1.144.032-2.258.09-3.405.12v-.593c2.203-.144 2.058-.85 2.058-2.792v-3.616c0-.824 0-2.882-.146-3.56-.237-1.062-1.03-.943-1.966-.943V8.03c1.526-.18 2.607-.65 4.045-.913l.385 2.675h.06c1.03-1.822 2.612-2.675 4.69-2.675 2.786 0 4.37 1.265 4.37 4.057v5.38zm13.808-2.025c0 .938 0 3.118.286 3.908.414 1.147 1.793.943 2.818 1.003v.678c-1.526-.03-3.054-.088-4.572-.118-1.444.03-2.85.09-4.314.118v-.677c.937 0 2.17 0 2.494-1.002.268-.79.268-2.97.268-3.908V6.262c0-.97 0-3.148-.268-3.94-.355-1.03-1.557-1.002-2.494-1.002V.643c1.495.03 2.958.092 4.428.12 1.404-.028 2.785-.09 4.198-.12 3.165.12 6.746 1.354 6.746 5.09 0 4.296-4.135 5.323-7.63 5.323-.53 0-1.847-.088-1.96-.088v3.562zm0-4.354V2.882c0-1.443-.127-1.324 2.02-1.385 2.845 0 4.196 1.47 4.196 4.325 0 3.177-1.498 4.47-4.52 4.47-.553 0-1.143-.086-1.696-.116zm14.96 6.38c.058 1.942-.266 2.825 2.05 2.97v.592c-1.145-.03-2.263-.088-3.375-.12-1.08.032-2.14.09-3.224.12v-.593c2.198-.144 2.055-.85 2.055-2.792V5.44c0-.736 0-2.53-.3-3.15-.35-.734-1.23-.674-1.9-.762v-.59L132.854 0v16.555zm10.59-4.497c.287-.15.235-.53.235-.855 0-1.998-.18-3.41-2.582-3.41-1.465 0-2.673.115-2.762 1.674-.055.646-.438 1.293-1.172 1.293-.64 0-1.113-.412-1.113-1.06 0-2.177 3.902-2.586 5.397-2.586 3.258 0 4.757.85 4.757 4.235v4.85c0 .738-.123 2.913 1.028 2.913.583 0 .88-.53 1.2-.94l.556.293c-.473.973-1.553 1.97-2.638 1.97-1.206 0-2.228-.914-2.528-2.085-1.38 1.117-3.076 2.086-4.893 2.086-1.555 0-3.06-.944-3.06-2.59 0-2.472 2.788-3.53 4.67-4.38l2.906-1.41zm.26.73v4.797c-.82.792-2.083 1.676-3.22 1.676-1.208 0-1.882-1.033-1.882-2.12 0-2.35 3.342-3.5 5.102-4.353zm19.512 3.765c0 1.943-.23 2.826 2.055 2.97v.593c-1.056-.03-2.144-.088-3.202-.12-1.14.032-2.253.09-3.398.12v-.593c2.2-.144 2.05-.85 2.05-2.792V12.97c0-2.028.09-4.913-2.7-4.913-2.282 0-3.75 1.792-3.75 3.943v4.555c0 1.943-.262 2.826 2.055 2.97v.593c-1.06-.03-2.145-.088-3.198-.12-1.146.032-2.264.09-3.408.12v-.593c2.2-.144 2.056-.85 2.056-2.792v-3.616c0-.824 0-2.882-.148-3.56-.232-1.062-1.026-.943-1.962-.943V8.03c1.52-.18 2.608-.65 4.046-.913l.38 2.675h.06c1.03-1.822 2.61-2.675 4.696-2.675 2.785 0 4.368 1.265 4.368 4.057v5.38zm2.055-8.144V7.88c1.47-.85 2.937-2.027 3.55-3.703h.443v3.44h3.34v.796h-3.34v8.38c0 1.326.26 2.704 1.813 2.704 1.03 0 1.557-.583 2.118-1.318l.53.38c-.53 1.414-2 1.883-3.406 1.883-2.112 0-3.55-.827-3.55-3.03v-9h-1.5zm10.38-6.53c0-.882.707-1.59 1.584-1.59.88 0 1.554.708 1.554 1.59 0 .854-.674 1.56-1.493 1.56-.883 0-1.643-.648-1.643-1.56zm3.166 5.235v9.44c.055 1.942-.262 2.826 2.055 2.97v.592c-1-.03-2.084-.088-3.14-.118-1.145.03-2.28.09-3.43.117v-.592c2.172-.144 1.995-.85 2.025-2.792v-4.205c0-.56 0-2.824-.118-3.266-.207-.736-1.44-.676-2.03-.648v-.587l4.637-.912zm17.01 9.44c0 1.943-.232 2.826 2.055 2.97v.593c-1.055-.03-2.14-.088-3.195-.12-1.147.032-2.256.09-3.406.12v-.593c2.204-.144 2.056-.85 2.056-2.792V12.97c0-2.028.093-4.913-2.702-4.913-2.285 0-3.753 1.792-3.753 3.943v4.555c0 1.943-.264 2.826 2.06 2.97v.593c-1.058-.03-2.146-.088-3.205-.12-1.14.032-2.257.09-3.405.12v-.593c2.202-.144 2.055-.85 2.055-2.792v-3.616c0-.824 0-2.882-.148-3.56-.23-1.062-1.022-.943-1.966-.943V8.03c1.527-.18 2.616-.65 4.047-.913l.387 2.675h.056c1.03-1.822 2.617-2.675 4.692-2.675 2.79 0 4.372 1.265 4.372 4.057v5.38zm9.503 2.21c2.997.235 6.165.35 6.165 4.29 0 3.74-3.464 4.944-6.66 4.944-2.437 0-6.16-.855-6.16-3.913 0-1.207.91-2.443 2.166-2.443.5 0 .882.208 1.237.53-.967.178-1.5 1.18-1.523 2.09-.054 1.562 2.61 1.617 4.66 1.617 2.06 0 4.11-.63 4.28-1.823.427-2.852-3.217-2.737-5.244-2.852-1.937-.06-4.613 0-4.613-2.648 0-1.414 1.325-2.354 2.587-2.53v-.06c-1.698-.558-3.138-2.176-3.138-4.057 0-3.12 2.636-4.793 5.514-4.793 1.35 0 2.725.41 3.726 1.324.79-.62 1.79-1.237 2.844-1.237.76 0 1.73.353 1.73 1.266 0 .53-.405.97-.97.97-.907 0-.992-1.03-1.904-1.03-.41 0-.882.293-1.206.56.712.795 1.064 1.823 1.064 2.88 0 3.47-2.612 4.473-5.635 4.617-.88.032-3.14.032-3.14 1.235 0 1.032 1.612.913 2.26.973l1.96.09zm2.056-6.914c0 1.912-.736 3.943-2.992 3.943-2.11 0-2.815-2.178-2.815-3.942 0-1.853.612-4.056 2.873-4.056 2.228 0 2.933 2.174 2.933 4.057zm5.13.298c.096-.217.226-.408.39-.57a1.838 1.838 0 0 1 2.555 0c.163.162.293.353.388.57.097.222.147.457.147.71 0 .262-.05.504-.147.725a1.768 1.768 0 0 1-.964.953c-.217.09-.45.136-.697.136-.25 0-.482-.045-.702-.136a1.786 1.786 0 0 1-.58-.378 1.803 1.803 0 0 1-.535-1.3c0-.253.048-.488.144-.71zm.296 1.33a1.462 1.462 0 0 0 1.376.935c.21 0 .403-.04.58-.12a1.43 1.43 0 0 0 .47-.325c.135-.14.24-.303.316-.49.076-.19.114-.396.114-.62 0-.214-.038-.415-.114-.602a1.473 1.473 0 0 0-1.958-.81 1.475 1.475 0 0 0-.784.81 1.57 1.57 0 0 0-.114.603c0 .222.038.43.114.617zm1.486-1.667c.25 0 .437.052.557.15.12.1.18.252.18.456 0 .19-.052.33-.158.417a.735.735 0 0 1-.397.158l.604.933h-.354l-.573-.908h-.348v.908h-.328V11.81h.815zm-.143.94c.072 0 .142 0 .21-.008a.52.52 0 0 0 .174-.042.27.27 0 0 0 .123-.104.35.35 0 0 0 .047-.195.337.337 0 0 0-.04-.17.315.315 0 0 0-.108-.095.494.494 0 0 0-.15-.045 1.183 1.183 0 0 0-.168-.013h-.433v.672h.344z"/></svg>